<?xml version="1.0" standalone="no"?>
<!DOCTYPE svg PUBLIC "-//W3C//DTD SVG 20010904//EN"
 "http://www.w3.org/TR/2001/REC-SVG-20010904/DTD/svg10.dtd">
<svg version="1.0" xmlns="http://www.w3.org/2000/svg"
 width="200.000000pt" height="200.000000pt" viewBox="0 0 200.000000 200.000000"
 preserveAspectRatio="xMidYMid meet">
<metadata>
Created by potrace 1.14, written by Peter Selinger 2001-2017
</metadata>
<g transform="translate(0.000000,200.000000) scale(0.100000,-0.100000)"
fill="#000000" stroke="none">
<path d="M347 1755 c9 -31 13 -58 9 -62 -3 -3 -41 -2 -83 4 -43 5 -79 9 -81 7
-2 -1 35 -14 82 -28 l86 -27 0 -87 c0 -77 2 -89 20 -100 28 -17 35 -11 50 43
10 34 19 47 37 51 13 4 27 4 30 0 3 -3 -15 -56 -41 -117 -33 -77 -46 -119 -41
-136 5 -20 3 -24 -12 -19 -51 15 -154 38 -157 35 -1 -2 -19 -46 -40 -98 -33
-85 -36 -96 -25 -129 11 -33 13 -34 25 -17 8 10 13 30 12 44 -1 20 40 120 57
139 2 2 46 -20 98 -50 l95 -53 6 -135 c4 -74 9 -163 11 -198 4 -47 1 -69 -11
-87 -16 -24 -20 -25 -167 -27 -149 -3 -152 -3 -155 -25 l-3 -23 605 0 606 0 0
24 c0 19 -6 25 -27 28 -27 3 -28 6 -58 159 l-30 157 -52 55 c-29 31 -53 62
-54 69 -2 34 3 117 9 147 l7 34 38 -32 37 -33 30 67 c16 37 30 71 30 76 0 5
-17 32 -37 59 -36 48 -39 50 -88 50 -33 0 -62 7 -84 21 -31 18 -40 20 -73 9
-55 -16 -176 -3 -188 20 -7 13 -4 22 11 35 19 18 21 18 58 -3 l40 -22 67 27
68 28 -56 3 c-42 2 -56 6 -52 16 3 9 -6 16 -27 20 -56 11 -69 7 -114 -35 l-44
-41 15 -36 c8 -20 16 -38 18 -40 2 -2 53 -8 113 -13 73 -7 118 -16 138 -29 26
-16 33 -17 55 -5 46 26 85 19 115 -21 23 -30 26 -39 16 -60 -6 -13 -16 -24
-23 -24 -7 0 -55 14 -107 31 -99 33 -114 33 -315 2 l-40 -6 22 28 23 29 -27
11 c-26 10 -29 19 -48 120 l-21 110 -38 3 c-34 3 -37 5 -31 28 5 21 3 24 -21
24 -20 0 -26 4 -21 15 3 8 9 23 13 32 5 12 2 15 -10 10 -9 -3 -52 -16 -96 -28
l-80 -22 -41 27 c-22 14 -42 26 -44 26 -2 0 3 -25 11 -55z m553 -672 l0 -98
-69 -108 c-39 -60 -73 -122 -76 -138 l-7 -29 -109 0 -109 0 5 163 c9 243 14
270 45 232 18 -22 32 -20 175 29 72 25 133 45 138 45 4 1 7 -43 7 -96z m206
-45 l74 -43 39 -116 c36 -110 38 -117 23 -142 l-16 -26 -213 -3 c-187 -3 -212
-1 -207 12 4 8 9 28 12 44 3 17 42 76 88 135 47 58 83 110 80 116 -4 13 25 65
38 65 5 0 42 -19 82 -42z"/>
<path d="M90 496 c0 -3 50 -229 65 -293 4 -19 12 -23 43 -23 l38 0 24 110 c13
60 26 108 29 105 2 -3 14 -52 26 -108 l21 -102 41 -3 40 -3 34 158 35 158 -29
3 c-16 2 -31 1 -33 -1 -3 -3 -12 -45 -20 -93 -22 -127 -24 -128 -45 -34 -10
47 -21 95 -24 108 -4 18 -12 22 -45 22 -44 0 -39 8 -66 -123 -18 -90 -26 -94
-38 -22 -24 144 -25 145 -62 145 -19 0 -34 -2 -34 -4z"/>
<path d="M727 493 c-4 -3 -7 -75 -7 -159 l0 -152 35 -4 35 -4 0 163 0 163 -28
0 c-16 0 -32 -3 -35 -7z"/>
<path d="M850 338 l0 -164 33 4 32 4 -1 156 0 157 -32 3 -32 3 0 -163z"/>
<path d="M545 401 c-30 -13 -42 -31 -50 -77 -15 -94 31 -162 101 -151 69 11
106 77 44 77 -19 0 -30 -5 -30 -14 0 -8 -5 -18 -10 -21 -16 -10 -40 15 -40 41
0 23 3 24 61 24 l62 0 -7 43 c-4 23 -15 50 -25 60 -20 21 -77 30 -106 18z m63
-64 c3 -23 0 -27 -22 -27 -21 0 -26 5 -26 24 0 43 43 46 48 3z"/>
<path d="M1020 403 c-42 -16 -50 -35 -50 -114 0 -72 2 -79 26 -98 49 -38 125
-21 144 32 5 16 10 32 10 33 0 2 -16 4 -35 4 -29 0 -35 -4 -35 -20 0 -24 -26
-38 -42 -22 -15 15 -14 132 2 142 19 12 40 1 40 -21 0 -14 7 -19 30 -19 25 0
30 4 30 23 0 13 -8 32 -19 41 -20 18 -77 29 -101 19z"/>
<path d="M1233 400 c-32 -13 -43 -41 -43 -112 0 -74 16 -103 60 -113 48 -11
89 3 105 35 18 34 20 119 4 154 -18 38 -78 55 -126 36z m61 -46 c18 -18 22
-95 6 -125 -13 -23 -36 -25 -44 -3 -11 28 -6 120 6 132 15 15 13 15 32 -4z"/>
<path d="M1507 403 c-4 -3 -27 -5 -52 -5 l-45 2 0 -109 0 -109 30 -4 30 -5 0
93 c0 69 3 93 14 97 26 10 36 -17 36 -99 l0 -82 30 -4 30 -5 0 93 c0 94 8 116
35 94 11 -9 15 -35 15 -99 l0 -88 30 5 31 4 -3 101 c-3 99 -4 102 -31 117 -25
14 -30 13 -55 -1 -24 -14 -31 -14 -47 -3 -20 15 -38 18 -48 7z"/>
<path d="M1774 399 c-30 -15 -44 -51 -44 -110 0 -91 42 -131 120 -114 30 7 60
38 60 62 0 23 -56 15 -74 -9 -15 -23 -16 -23 -31 -3 -28 35 -15 50 48 53 l57
3 0 38 c0 22 -8 48 -18 61 -20 25 -86 35 -118 19z m64 -41 c21 -21 14 -48 -12
-48 -31 0 -40 14 -26 40 12 23 21 25 38 8z"/>
</g>
</svg>
